<mxfile host="app.diagrams.net" modified="2023-04-22T20:05:26.205Z" agent="Mozilla/5.0 (X11; Linux x86_64; rv:112.0) Gecko/20100101 Firefox/112.0" etag="4Z-HrSoVhSeWLU2ZW3QB" version="21.2.1" type="device">
  <diagram name="Page-1" id="tfmDBc3miOEakFV3B7y-">
    <mxGraphModel dx="2284" dy="723" grid="1" gridSize="10" guides="1" tooltips="1" connect="1" arrows="1" fold="1" page="1" pageScale="1" pageWidth="850" pageHeight="1100" math="0" shadow="0">
      <root>
        <mxCell id="0" />
        <mxCell id="1" parent="0" />
        <mxCell id="NPP5GdCvXKv0nV-kcgQ7-1" value="&lt;div&gt;Manage Schedule&lt;/div&gt;" style="shape=parallelogram;perimeter=parallelogramPerimeter;whiteSpace=wrap;html=1;fixedSize=1;fillColor=#dae8fc;strokeColor=#6c8ebf;" parent="1" vertex="1">
          <mxGeometry x="370" y="30" width="135" height="60" as="geometry" />
        </mxCell>
        <mxCell id="NPP5GdCvXKv0nV-kcgQ7-3" value="&lt;div&gt;Enroll In Classes&lt;/div&gt;" style="shape=parallelogram;perimeter=parallelogramPerimeter;whiteSpace=wrap;html=1;fixedSize=1;fillColor=#dae8fc;strokeColor=#6c8ebf;" parent="1" vertex="1">
          <mxGeometry x="260" y="240" width="135" height="60" as="geometry" />
        </mxCell>
        <mxCell id="NPP5GdCvXKv0nV-kcgQ7-5" value="&lt;div&gt;Join Competitions&lt;/div&gt;" style="shape=parallelogram;perimeter=parallelogramPerimeter;whiteSpace=wrap;html=1;fixedSize=1;fillColor=#dae8fc;strokeColor=#6c8ebf;" parent="1" vertex="1">
          <mxGeometry x="460" y="240" width="130" height="60" as="geometry" />
        </mxCell>
        <mxCell id="NPP5GdCvXKv0nV-kcgQ7-36" style="edgeStyle=orthogonalEdgeStyle;orthogonalLoop=1;jettySize=auto;html=1;startFill=1;endFill=0;rounded=0;entryX=0.5;entryY=1;entryDx=0;entryDy=0;" parent="1" edge="1">
          <mxGeometry relative="1" as="geometry">
            <mxPoint x="720" y="729.9999999999998" as="sourcePoint" />
          </mxGeometry>
        </mxCell>
        <mxCell id="QFNl94cKe365iZrxpkh_-1" value="&lt;div&gt;Manage Schedule&lt;/div&gt;" style="shape=parallelogram;perimeter=parallelogramPerimeter;whiteSpace=wrap;html=1;fixedSize=1;fillColor=#dae8fc;strokeColor=#6c8ebf;" parent="1" vertex="1">
          <mxGeometry x="370" y="30" width="135" height="60" as="geometry" />
        </mxCell>
        <mxCell id="QFNl94cKe365iZrxpkh_-2" value="&lt;div&gt;Enroll In Classes&lt;/div&gt;" style="shape=parallelogram;perimeter=parallelogramPerimeter;whiteSpace=wrap;html=1;fixedSize=1;fillColor=#dae8fc;strokeColor=#6c8ebf;" parent="1" vertex="1">
          <mxGeometry x="260" y="240" width="135" height="60" as="geometry" />
        </mxCell>
        <mxCell id="QFNl94cKe365iZrxpkh_-3" value="&lt;div&gt;Join Competitions&lt;/div&gt;" style="shape=parallelogram;perimeter=parallelogramPerimeter;whiteSpace=wrap;html=1;fixedSize=1;fillColor=#dae8fc;strokeColor=#6c8ebf;" parent="1" vertex="1">
          <mxGeometry x="460" y="240" width="130" height="60" as="geometry" />
        </mxCell>
        <mxCell id="QFNl94cKe365iZrxpkh_-4" value="" style="ellipse;whiteSpace=wrap;html=1;aspect=fixed;fillColor=#ffff88;strokeColor=#36393d;" parent="1" vertex="1">
          <mxGeometry x="415" y="170" width="20" height="20" as="geometry" />
        </mxCell>
        <mxCell id="QFNl94cKe365iZrxpkh_-5" value="" style="endArrow=none;html=1;rounded=0;entryX=0;entryY=1;entryDx=0;entryDy=0;exitX=0.75;exitY=0;exitDx=0;exitDy=0;" parent="1" source="QFNl94cKe365iZrxpkh_-2" target="QFNl94cKe365iZrxpkh_-4" edge="1">
          <mxGeometry width="50" height="50" relative="1" as="geometry">
            <mxPoint x="320" y="270" as="sourcePoint" />
            <mxPoint x="370" y="220" as="targetPoint" />
          </mxGeometry>
        </mxCell>
        <mxCell id="QFNl94cKe365iZrxpkh_-6" value="" style="endArrow=none;html=1;rounded=0;entryX=1;entryY=1;entryDx=0;entryDy=0;exitX=0.25;exitY=0;exitDx=0;exitDy=0;" parent="1" source="QFNl94cKe365iZrxpkh_-3" target="QFNl94cKe365iZrxpkh_-4" edge="1">
          <mxGeometry width="50" height="50" relative="1" as="geometry">
            <mxPoint x="490" y="250" as="sourcePoint" />
            <mxPoint x="540" y="200" as="targetPoint" />
          </mxGeometry>
        </mxCell>
        <mxCell id="QFNl94cKe365iZrxpkh_-7" value="" style="endArrow=classic;html=1;rounded=0;exitX=0.5;exitY=0;exitDx=0;exitDy=0;" parent="1" source="QFNl94cKe365iZrxpkh_-4" target="QFNl94cKe365iZrxpkh_-1" edge="1">
          <mxGeometry width="50" height="50" relative="1" as="geometry">
            <mxPoint x="500" y="130" as="sourcePoint" />
            <mxPoint x="550" y="80" as="targetPoint" />
          </mxGeometry>
        </mxCell>
        <mxCell id="7pt3q2MDJ_d6-O4SjyfG-34" style="rounded=0;orthogonalLoop=1;jettySize=auto;html=1;exitX=1;exitY=0.75;exitDx=0;exitDy=0;entryX=0;entryY=0.5;entryDx=0;entryDy=0;endArrow=none;endFill=0;" parent="1" source="QFNl94cKe365iZrxpkh_-8" target="7pt3q2MDJ_d6-O4SjyfG-33" edge="1">
          <mxGeometry relative="1" as="geometry" />
        </mxCell>
        <mxCell id="QFNl94cKe365iZrxpkh_-8" value="&lt;font style=&quot;font-size: 23px;&quot;&gt;ðŸ¯…&lt;/font&gt; User" style="shape=hexagon;perimeter=hexagonPerimeter2;whiteSpace=wrap;html=1;fixedSize=1;fillColor=#ffff88;strokeColor=#36393d;" parent="1" vertex="1">
          <mxGeometry x="795" y="690" width="80" height="50" as="geometry" />
        </mxCell>
        <mxCell id="QFNl94cKe365iZrxpkh_-9" value="&lt;div&gt;System&lt;/div&gt;" style="shape=hexagon;perimeter=hexagonPerimeter2;whiteSpace=wrap;html=1;fixedSize=1;fillColor=#ffff88;strokeColor=#36393d;" parent="1" vertex="1">
          <mxGeometry x="950" y="1180" width="80" height="50" as="geometry" />
        </mxCell>
        <mxCell id="QFNl94cKe365iZrxpkh_-10" value="&lt;div&gt;Schedule&lt;/div&gt;" style="swimlane;childLayout=stackLayout;horizontal=1;startSize=50;horizontalStack=0;rounded=0;fontSize=14;fontStyle=0;strokeWidth=2;resizeParent=0;resizeLast=1;shadow=0;dashed=0;align=center;arcSize=4;whiteSpace=wrap;html=1;" parent="1" vertex="1">
          <mxGeometry x="-330" y="180" width="160" height="90" as="geometry" />
        </mxCell>
        <mxCell id="QFNl94cKe365iZrxpkh_-11" value="&lt;div&gt;+activities : List&amp;lt;Activity&amp;gt;&lt;/div&gt;" style="align=left;strokeColor=none;fillColor=none;spacingLeft=4;fontSize=12;verticalAlign=top;resizable=0;rotatable=0;part=1;html=1;" parent="QFNl94cKe365iZrxpkh_-10" vertex="1">
          <mxGeometry y="50" width="160" height="40" as="geometry" />
        </mxCell>
        <mxCell id="QFNl94cKe365iZrxpkh_-12" value="&lt;div&gt;Activity&lt;/div&gt;" style="swimlane;childLayout=stackLayout;horizontal=1;startSize=50;horizontalStack=0;rounded=0;fontSize=14;fontStyle=0;strokeWidth=2;resizeParent=0;resizeLast=1;shadow=0;dashed=0;align=center;arcSize=4;whiteSpace=wrap;html=1;" parent="1" vertex="1">
          <mxGeometry x="-330" y="390" width="160" height="150" as="geometry" />
        </mxCell>
        <mxCell id="QFNl94cKe365iZrxpkh_-13" value="&lt;div&gt;+start : DateTime&lt;/div&gt;&lt;div&gt;+end : DateTime&lt;/div&gt;&lt;div&gt;+type : String&lt;/div&gt;&lt;div&gt;+isCompleted : boolean&lt;br&gt;&lt;/div&gt;&lt;div&gt;+trainer : User&lt;/div&gt;&lt;div&gt;+participants : List&amp;lt;User&amp;gt;&lt;br&gt;&lt;/div&gt;" style="align=left;strokeColor=none;fillColor=none;spacingLeft=4;fontSize=12;verticalAlign=top;resizable=0;rotatable=0;part=1;html=1;" parent="QFNl94cKe365iZrxpkh_-12" vertex="1">
          <mxGeometry y="50" width="160" height="100" as="geometry" />
        </mxCell>
        <mxCell id="QFNl94cKe365iZrxpkh_-14" value="" style="endArrow=diamondThin;endFill=0;endSize=24;html=1;rounded=0;entryX=0.5;entryY=1;entryDx=0;entryDy=0;exitX=0.5;exitY=0;exitDx=0;exitDy=0;" parent="1" source="QFNl94cKe365iZrxpkh_-12" target="QFNl94cKe365iZrxpkh_-10" edge="1">
          <mxGeometry width="160" relative="1" as="geometry">
            <mxPoint x="-340" y="340" as="sourcePoint" />
            <mxPoint x="-180" y="340" as="targetPoint" />
          </mxGeometry>
        </mxCell>
        <mxCell id="QFNl94cKe365iZrxpkh_-15" value="" style="endArrow=none;html=1;rounded=0;exitX=1;exitY=0;exitDx=0;exitDy=0;" parent="1" source="QFNl94cKe365iZrxpkh_-11" target="QFNl94cKe365iZrxpkh_-1" edge="1">
          <mxGeometry width="50" height="50" relative="1" as="geometry">
            <mxPoint x="280" y="170" as="sourcePoint" />
            <mxPoint x="330" y="120" as="targetPoint" />
          </mxGeometry>
        </mxCell>
        <mxCell id="QFNl94cKe365iZrxpkh_-16" value="&lt;div&gt;&lt;font style=&quot;font-size: 23px;&quot;&gt;ðŸ¯…&lt;/font&gt; Teacher&lt;/div&gt;" style="shape=hexagon;perimeter=hexagonPerimeter2;whiteSpace=wrap;html=1;fixedSize=1;fillColor=#ffff88;strokeColor=#36393d;" parent="1" vertex="1">
          <mxGeometry x="790" y="840" width="90" height="50" as="geometry" />
        </mxCell>
        <mxCell id="QFNl94cKe365iZrxpkh_-17" value="" style="endArrow=none;html=1;rounded=0;exitX=0.994;exitY=0.13;exitDx=0;exitDy=0;exitPerimeter=0;" parent="1" source="QFNl94cKe365iZrxpkh_-13" target="QFNl94cKe365iZrxpkh_-2" edge="1">
          <mxGeometry width="50" height="50" relative="1" as="geometry">
            <mxPoint x="250" y="420" as="sourcePoint" />
            <mxPoint x="300" y="370" as="targetPoint" />
          </mxGeometry>
        </mxCell>
        <mxCell id="QFNl94cKe365iZrxpkh_-18" value="" style="endArrow=none;html=1;rounded=0;exitX=1;exitY=0.39;exitDx=0;exitDy=0;exitPerimeter=0;entryX=0.154;entryY=1;entryDx=0;entryDy=0;entryPerimeter=0;" parent="1" source="QFNl94cKe365iZrxpkh_-13" target="QFNl94cKe365iZrxpkh_-3" edge="1">
          <mxGeometry width="50" height="50" relative="1" as="geometry">
            <mxPoint x="230" y="470" as="sourcePoint" />
            <mxPoint x="430" y="390" as="targetPoint" />
          </mxGeometry>
        </mxCell>
        <mxCell id="QFNl94cKe365iZrxpkh_-19" value="User" style="swimlane;childLayout=stackLayout;horizontal=1;startSize=50;horizontalStack=0;rounded=0;fontSize=14;fontStyle=0;strokeWidth=2;resizeParent=0;resizeLast=1;shadow=0;dashed=0;align=center;arcSize=4;whiteSpace=wrap;html=1;" parent="1" vertex="1">
          <mxGeometry x="-330" y="630" width="160" height="210" as="geometry" />
        </mxCell>
        <mxCell id="QFNl94cKe365iZrxpkh_-20" value="+fullName : String&lt;br&gt;+email : String&lt;br&gt;&lt;div&gt;+password : String&lt;/div&gt;&lt;div&gt;+role : String&lt;/div&gt;&lt;div&gt;+username : String&lt;/div&gt;&lt;div&gt;+gender : String&lt;/div&gt;&lt;div&gt;+age : int&lt;/div&gt;&lt;div&gt;+height : int&lt;/div&gt;&lt;div&gt;+weight : int&lt;/div&gt;&lt;div&gt;+sensors : List&amp;lt;Sensor&amp;gt;&lt;br&gt;&lt;/div&gt;" style="align=left;strokeColor=none;fillColor=none;spacingLeft=4;fontSize=12;verticalAlign=top;resizable=0;rotatable=0;part=1;html=1;" parent="QFNl94cKe365iZrxpkh_-19" vertex="1">
          <mxGeometry y="50" width="160" height="160" as="geometry" />
        </mxCell>
        <mxCell id="QFNl94cKe365iZrxpkh_-21" value="Extends" style="endArrow=block;endSize=16;endFill=0;html=1;rounded=0;entryX=0.5;entryY=1;entryDx=0;entryDy=0;exitX=0.5;exitY=0;exitDx=0;exitDy=0;" parent="1" source="QFNl94cKe365iZrxpkh_-16" target="QFNl94cKe365iZrxpkh_-8" edge="1">
          <mxGeometry width="160" relative="1" as="geometry">
            <mxPoint x="735" y="790" as="sourcePoint" />
            <mxPoint x="895" y="790" as="targetPoint" />
          </mxGeometry>
        </mxCell>
        <mxCell id="QFNl94cKe365iZrxpkh_-22" value="" style="endArrow=diamondThin;endFill=0;endSize=24;html=1;rounded=0;entryX=0.5;entryY=1;entryDx=0;entryDy=0;exitX=0.5;exitY=0;exitDx=0;exitDy=0;" parent="1" source="QFNl94cKe365iZrxpkh_-19" target="QFNl94cKe365iZrxpkh_-13" edge="1">
          <mxGeometry width="160" relative="1" as="geometry">
            <mxPoint x="-330" y="590" as="sourcePoint" />
            <mxPoint x="-170" y="590" as="targetPoint" />
          </mxGeometry>
        </mxCell>
        <mxCell id="QFNl94cKe365iZrxpkh_-23" value="&lt;div&gt;1..*&lt;/div&gt;" style="edgeLabel;html=1;align=center;verticalAlign=middle;resizable=0;points=[];" parent="QFNl94cKe365iZrxpkh_-22" vertex="1" connectable="0">
          <mxGeometry x="0.6889" y="-4" relative="1" as="geometry">
            <mxPoint x="6" y="66" as="offset" />
          </mxGeometry>
        </mxCell>
        <mxCell id="QFNl94cKe365iZrxpkh_-24" value="&lt;div&gt;0..*&lt;/div&gt;" style="edgeLabel;html=1;align=center;verticalAlign=middle;resizable=0;points=[];" parent="QFNl94cKe365iZrxpkh_-22" vertex="1" connectable="0">
          <mxGeometry x="0.6222" y="-2" relative="1" as="geometry">
            <mxPoint x="8" y="13" as="offset" />
          </mxGeometry>
        </mxCell>
        <mxCell id="QFNl94cKe365iZrxpkh_-25" value="&lt;div&gt;Sensor&lt;/div&gt;" style="swimlane;childLayout=stackLayout;horizontal=1;startSize=50;horizontalStack=0;rounded=0;fontSize=14;fontStyle=0;strokeWidth=2;resizeParent=0;resizeLast=1;shadow=0;dashed=0;align=center;arcSize=4;whiteSpace=wrap;html=1;" parent="1" vertex="1">
          <mxGeometry x="-300" y="930" width="160" height="100" as="geometry" />
        </mxCell>
        <mxCell id="QFNl94cKe365iZrxpkh_-26" value="+calories : float&lt;br&gt;+heartRate : int" style="align=left;strokeColor=none;fillColor=none;spacingLeft=4;fontSize=12;verticalAlign=top;resizable=0;rotatable=0;part=1;html=1;" parent="QFNl94cKe365iZrxpkh_-25" vertex="1">
          <mxGeometry y="50" width="160" height="50" as="geometry" />
        </mxCell>
        <mxCell id="QFNl94cKe365iZrxpkh_-27" value="" style="endArrow=diamondThin;endFill=0;endSize=24;html=1;rounded=0;entryX=0.5;entryY=1;entryDx=0;entryDy=0;exitX=0.5;exitY=0;exitDx=0;exitDy=0;" parent="1" target="QFNl94cKe365iZrxpkh_-20" edge="1">
          <mxGeometry width="160" relative="1" as="geometry">
            <mxPoint x="-250" y="930" as="sourcePoint" />
            <mxPoint x="-220" y="890" as="targetPoint" />
          </mxGeometry>
        </mxCell>
        <mxCell id="QFNl94cKe365iZrxpkh_-28" value="Have Classes Available" style="shape=parallelogram;perimeter=parallelogramPerimeter;whiteSpace=wrap;html=1;fixedSize=1;fillColor=#dae8fc;strokeColor=#6c8ebf;" parent="1" vertex="1">
          <mxGeometry x="260" y="420" width="120" height="60" as="geometry" />
        </mxCell>
        <mxCell id="QFNl94cKe365iZrxpkh_-29" style="edgeStyle=orthogonalEdgeStyle;rounded=0;orthogonalLoop=1;jettySize=auto;html=1;entryX=0.444;entryY=1;entryDx=0;entryDy=0;entryPerimeter=0;" parent="1" source="QFNl94cKe365iZrxpkh_-30" target="QFNl94cKe365iZrxpkh_-2" edge="1">
          <mxGeometry relative="1" as="geometry" />
        </mxCell>
        <mxCell id="QFNl94cKe365iZrxpkh_-30" value="" style="ellipse;whiteSpace=wrap;html=1;aspect=fixed;fillColor=#ffff88;strokeColor=#36393d;" parent="1" vertex="1">
          <mxGeometry x="310" y="380" width="20" height="20" as="geometry" />
        </mxCell>
        <mxCell id="N_5KMHFPPtvNETul84LO-10" style="rounded=0;orthogonalLoop=1;jettySize=auto;html=1;entryX=1;entryY=1;entryDx=0;entryDy=0;endArrow=none;endFill=0;exitX=0.5;exitY=0;exitDx=0;exitDy=0;" parent="1" source="QFNl94cKe365iZrxpkh_-31" target="N_5KMHFPPtvNETul84LO-7" edge="1">
          <mxGeometry relative="1" as="geometry">
            <mxPoint x="320" y="660" as="sourcePoint" />
          </mxGeometry>
        </mxCell>
        <mxCell id="QFNl94cKe365iZrxpkh_-31" value="&lt;div&gt;Create Classes&lt;/div&gt;" style="shape=parallelogram;perimeter=parallelogramPerimeter;whiteSpace=wrap;html=1;fixedSize=1;fillColor=#dae8fc;strokeColor=#6c8ebf;" parent="1" vertex="1">
          <mxGeometry x="260" y="630" width="120" height="60" as="geometry" />
        </mxCell>
        <mxCell id="QFNl94cKe365iZrxpkh_-32" style="edgeStyle=orthogonalEdgeStyle;rounded=0;orthogonalLoop=1;jettySize=auto;html=1;" parent="1" source="QFNl94cKe365iZrxpkh_-33" target="QFNl94cKe365iZrxpkh_-28" edge="1">
          <mxGeometry relative="1" as="geometry" />
        </mxCell>
        <mxCell id="QFNl94cKe365iZrxpkh_-33" value="" style="ellipse;whiteSpace=wrap;html=1;aspect=fixed;fillColor=#ffff88;strokeColor=#36393d;" parent="1" vertex="1">
          <mxGeometry x="310" y="545" width="20" height="20" as="geometry" />
        </mxCell>
        <mxCell id="QFNl94cKe365iZrxpkh_-34" value="Have Competitions Available" style="shape=parallelogram;perimeter=parallelogramPerimeter;whiteSpace=wrap;html=1;fixedSize=1;fillColor=#dae8fc;strokeColor=#6c8ebf;" parent="1" vertex="1">
          <mxGeometry x="455" y="460" width="140" height="60" as="geometry" />
        </mxCell>
        <mxCell id="N_5KMHFPPtvNETul84LO-18" style="edgeStyle=orthogonalEdgeStyle;rounded=0;orthogonalLoop=1;jettySize=auto;html=1;exitX=1;exitY=0.25;exitDx=0;exitDy=0;entryX=0.576;entryY=-0.076;entryDx=0;entryDy=0;entryPerimeter=0;fillColor=#dae8fc;strokeColor=#6c8ebf;" parent="1" source="QFNl94cKe365iZrxpkh_-35" target="N_5KMHFPPtvNETul84LO-16" edge="1">
          <mxGeometry relative="1" as="geometry">
            <Array as="points">
              <mxPoint x="670" y="681" />
              <mxPoint x="670" y="586" />
              <mxPoint x="671" y="586" />
            </Array>
          </mxGeometry>
        </mxCell>
        <mxCell id="QFNl94cKe365iZrxpkh_-35" value="&lt;div&gt;Create Competitions&lt;/div&gt;" style="shape=parallelogram;perimeter=parallelogramPerimeter;whiteSpace=wrap;html=1;fixedSize=1;fillColor=#dae8fc;strokeColor=#6c8ebf;" parent="1" vertex="1">
          <mxGeometry x="455" y="665" width="140" height="60" as="geometry" />
        </mxCell>
        <mxCell id="QFNl94cKe365iZrxpkh_-36" style="edgeStyle=orthogonalEdgeStyle;rounded=0;orthogonalLoop=1;jettySize=auto;html=1;" parent="1" source="QFNl94cKe365iZrxpkh_-37" target="QFNl94cKe365iZrxpkh_-34" edge="1">
          <mxGeometry relative="1" as="geometry" />
        </mxCell>
        <mxCell id="QFNl94cKe365iZrxpkh_-37" value="" style="ellipse;whiteSpace=wrap;html=1;aspect=fixed;fillColor=#ffff88;strokeColor=#36393d;" parent="1" vertex="1">
          <mxGeometry x="515" y="605" width="20" height="20" as="geometry" />
        </mxCell>
        <mxCell id="QFNl94cKe365iZrxpkh_-38" style="edgeStyle=orthogonalEdgeStyle;rounded=0;orthogonalLoop=1;jettySize=auto;html=1;entryX=0.5;entryY=1;entryDx=0;entryDy=0;" parent="1" source="QFNl94cKe365iZrxpkh_-39" target="QFNl94cKe365iZrxpkh_-3" edge="1">
          <mxGeometry relative="1" as="geometry" />
        </mxCell>
        <mxCell id="QFNl94cKe365iZrxpkh_-39" value="" style="ellipse;whiteSpace=wrap;html=1;aspect=fixed;fillColor=#ffff88;strokeColor=#36393d;" parent="1" vertex="1">
          <mxGeometry x="515" y="325" width="20" height="20" as="geometry" />
        </mxCell>
        <mxCell id="QFNl94cKe365iZrxpkh_-40" value="&lt;div&gt;User is Registered&lt;br&gt;&lt;/div&gt;" style="shape=parallelogram;perimeter=parallelogramPerimeter;whiteSpace=wrap;html=1;fixedSize=1;fillColor=#ffff88;strokeColor=#36393d;strokeWidth=4;" parent="1" vertex="1">
          <mxGeometry x="755" y="470" width="160" height="60" as="geometry" />
        </mxCell>
        <mxCell id="QFNl94cKe365iZrxpkh_-41" value="" style="endArrow=none;html=1;rounded=0;entryX=0.5;entryY=1;entryDx=0;entryDy=0;" parent="1" source="QFNl94cKe365iZrxpkh_-28" target="QFNl94cKe365iZrxpkh_-30" edge="1">
          <mxGeometry width="50" height="50" relative="1" as="geometry">
            <mxPoint x="210" y="490" as="sourcePoint" />
            <mxPoint x="260" y="440" as="targetPoint" />
          </mxGeometry>
        </mxCell>
        <mxCell id="QFNl94cKe365iZrxpkh_-42" value="" style="endArrow=none;html=1;rounded=0;entryX=0.5;entryY=1;entryDx=0;entryDy=0;exitX=0.5;exitY=0;exitDx=0;exitDy=0;" parent="1" source="QFNl94cKe365iZrxpkh_-34" target="QFNl94cKe365iZrxpkh_-39" edge="1">
          <mxGeometry width="50" height="50" relative="1" as="geometry">
            <mxPoint x="430" y="440" as="sourcePoint" />
            <mxPoint x="480" y="390" as="targetPoint" />
          </mxGeometry>
        </mxCell>
        <mxCell id="QFNl94cKe365iZrxpkh_-43" value="" style="endArrow=none;html=1;rounded=0;entryX=0.5;entryY=1;entryDx=0;entryDy=0;exitX=0.5;exitY=0;exitDx=0;exitDy=0;" parent="1" source="QFNl94cKe365iZrxpkh_-31" target="QFNl94cKe365iZrxpkh_-33" edge="1">
          <mxGeometry width="50" height="50" relative="1" as="geometry">
            <mxPoint x="180" y="685" as="sourcePoint" />
            <mxPoint x="230" y="635" as="targetPoint" />
          </mxGeometry>
        </mxCell>
        <mxCell id="QFNl94cKe365iZrxpkh_-44" value="" style="endArrow=none;html=1;rounded=0;entryX=0.5;entryY=1;entryDx=0;entryDy=0;exitX=0.5;exitY=0;exitDx=0;exitDy=0;" parent="1" source="QFNl94cKe365iZrxpkh_-35" target="QFNl94cKe365iZrxpkh_-37" edge="1">
          <mxGeometry width="50" height="50" relative="1" as="geometry">
            <mxPoint x="430" y="675" as="sourcePoint" />
            <mxPoint x="480" y="625" as="targetPoint" />
          </mxGeometry>
        </mxCell>
        <mxCell id="QFNl94cKe365iZrxpkh_-47" value="" style="ellipse;whiteSpace=wrap;html=1;aspect=fixed;fillColor=#e51400;strokeColor=#B20000;fontColor=#ffffff;" parent="1" vertex="1">
          <mxGeometry x="825" y="585" width="20" height="20" as="geometry" />
        </mxCell>
        <mxCell id="QFNl94cKe365iZrxpkh_-48" value="" style="endArrow=none;html=1;rounded=0;entryX=0.5;entryY=1;entryDx=0;entryDy=0;exitX=0.5;exitY=0;exitDx=0;exitDy=0;" parent="1" source="QFNl94cKe365iZrxpkh_-8" target="QFNl94cKe365iZrxpkh_-47" edge="1">
          <mxGeometry width="50" height="50" relative="1" as="geometry">
            <mxPoint x="770" y="680" as="sourcePoint" />
            <mxPoint x="820" y="630" as="targetPoint" />
          </mxGeometry>
        </mxCell>
        <mxCell id="QFNl94cKe365iZrxpkh_-49" value="" style="endArrow=classic;html=1;rounded=0;entryX=0.5;entryY=1;entryDx=0;entryDy=0;exitX=0.5;exitY=0;exitDx=0;exitDy=0;" parent="1" source="QFNl94cKe365iZrxpkh_-47" target="QFNl94cKe365iZrxpkh_-40" edge="1">
          <mxGeometry width="50" height="50" relative="1" as="geometry">
            <mxPoint x="780" y="560" as="sourcePoint" />
            <mxPoint x="830" y="510" as="targetPoint" />
          </mxGeometry>
        </mxCell>
        <mxCell id="QFNl94cKe365iZrxpkh_-50" style="edgeStyle=orthogonalEdgeStyle;rounded=0;orthogonalLoop=1;jettySize=auto;html=1;" parent="1" source="QFNl94cKe365iZrxpkh_-51" target="QFNl94cKe365iZrxpkh_-35" edge="1">
          <mxGeometry relative="1" as="geometry" />
        </mxCell>
        <mxCell id="QFNl94cKe365iZrxpkh_-51" value="" style="ellipse;whiteSpace=wrap;html=1;aspect=fixed;fillColor=#ffff88;strokeColor=#36393d;" parent="1" vertex="1">
          <mxGeometry x="515" y="785" width="20" height="20" as="geometry" />
        </mxCell>
        <mxCell id="QFNl94cKe365iZrxpkh_-52" style="edgeStyle=orthogonalEdgeStyle;rounded=0;orthogonalLoop=1;jettySize=auto;html=1;entryX=0.5;entryY=1;entryDx=0;entryDy=0;" parent="1" source="QFNl94cKe365iZrxpkh_-53" target="QFNl94cKe365iZrxpkh_-31" edge="1">
          <mxGeometry relative="1" as="geometry" />
        </mxCell>
        <mxCell id="QFNl94cKe365iZrxpkh_-53" value="" style="ellipse;whiteSpace=wrap;html=1;aspect=fixed;fillColor=#ffff88;strokeColor=#36393d;" parent="1" vertex="1">
          <mxGeometry x="310" y="785" width="20" height="20" as="geometry" />
        </mxCell>
        <mxCell id="QFNl94cKe365iZrxpkh_-54" value="" style="endArrow=none;html=1;rounded=0;entryX=0;entryY=0.5;entryDx=0;entryDy=0;exitX=1;exitY=1;exitDx=0;exitDy=0;" parent="1" source="QFNl94cKe365iZrxpkh_-51" target="QFNl94cKe365iZrxpkh_-16" edge="1">
          <mxGeometry width="50" height="50" relative="1" as="geometry">
            <mxPoint x="680" y="820" as="sourcePoint" />
            <mxPoint x="730" y="770" as="targetPoint" />
          </mxGeometry>
        </mxCell>
        <mxCell id="QFNl94cKe365iZrxpkh_-55" value="" style="endArrow=none;html=1;rounded=0;entryX=0;entryY=0.5;entryDx=0;entryDy=0;exitX=1;exitY=1;exitDx=0;exitDy=0;" parent="1" source="QFNl94cKe365iZrxpkh_-53" target="QFNl94cKe365iZrxpkh_-16" edge="1">
          <mxGeometry width="50" height="50" relative="1" as="geometry">
            <mxPoint x="330" y="700" as="sourcePoint" />
            <mxPoint x="650" y="870" as="targetPoint" />
          </mxGeometry>
        </mxCell>
        <mxCell id="7pt3q2MDJ_d6-O4SjyfG-26" style="edgeStyle=orthogonalEdgeStyle;rounded=0;orthogonalLoop=1;jettySize=auto;html=1;exitX=0.5;exitY=0;exitDx=0;exitDy=0;entryX=0;entryY=0.5;entryDx=0;entryDy=0;fillColor=#dae8fc;strokeColor=#6c8ebf;" parent="1" source="7pt3q2MDJ_d6-O4SjyfG-2" target="7pt3q2MDJ_d6-O4SjyfG-14" edge="1">
          <mxGeometry relative="1" as="geometry">
            <Array as="points">
              <mxPoint x="1205" y="260" />
            </Array>
          </mxGeometry>
        </mxCell>
        <mxCell id="SKgAH3P458jAHIBZNOmR-22" style="rounded=0;orthogonalLoop=1;jettySize=auto;html=1;exitX=0.75;exitY=0;exitDx=0;exitDy=0;entryX=0;entryY=1;entryDx=0;entryDy=0;endArrow=none;endFill=0;" parent="1" source="7pt3q2MDJ_d6-O4SjyfG-2" target="SKgAH3P458jAHIBZNOmR-18" edge="1">
          <mxGeometry relative="1" as="geometry" />
        </mxCell>
        <mxCell id="7pt3q2MDJ_d6-O4SjyfG-2" value="Login User" style="shape=parallelogram;html=1;strokeWidth=2;perimeter=parallelogramPerimeter;whiteSpace=wrap;rounded=0;arcSize=12;size=0.23;fillColor=#dae8fc;strokeColor=#6c8ebf;" parent="1" vertex="1">
          <mxGeometry x="1135" y="345" width="140" height="50" as="geometry" />
        </mxCell>
        <mxCell id="7pt3q2MDJ_d6-O4SjyfG-13" style="rounded=0;orthogonalLoop=1;jettySize=auto;html=1;exitX=0;exitY=0;exitDx=0;exitDy=0;entryX=0.65;entryY=1.05;entryDx=0;entryDy=0;entryPerimeter=0;" parent="1" source="7pt3q2MDJ_d6-O4SjyfG-52" target="QFNl94cKe365iZrxpkh_-40" edge="1">
          <mxGeometry relative="1" as="geometry" />
        </mxCell>
        <mxCell id="7pt3q2MDJ_d6-O4SjyfG-10" value="&lt;div&gt;Fills Registering Form&lt;/div&gt;" style="ellipse;whiteSpace=wrap;html=1;fillColor=#f8cecc;strokeColor=#b85450;" parent="1" vertex="1">
          <mxGeometry x="860" y="605" width="140" height="40" as="geometry" />
        </mxCell>
        <mxCell id="7pt3q2MDJ_d6-O4SjyfG-19" style="rounded=0;orthogonalLoop=1;jettySize=auto;html=1;exitX=1;exitY=0.5;exitDx=0;exitDy=0;entryX=1;entryY=0.25;entryDx=0;entryDy=0;strokeColor=#FF6666;" parent="1" source="7pt3q2MDJ_d6-O4SjyfG-14" target="QFNl94cKe365iZrxpkh_-3" edge="1">
          <mxGeometry relative="1" as="geometry" />
        </mxCell>
        <mxCell id="7pt3q2MDJ_d6-O4SjyfG-20" style="edgeStyle=orthogonalEdgeStyle;rounded=0;orthogonalLoop=1;jettySize=auto;html=1;exitX=0.75;exitY=0;exitDx=0;exitDy=0;entryX=1;entryY=0.5;entryDx=0;entryDy=0;strokeColor=#FF6666;" parent="1" source="7pt3q2MDJ_d6-O4SjyfG-14" target="QFNl94cKe365iZrxpkh_-35" edge="1">
          <mxGeometry relative="1" as="geometry">
            <Array as="points">
              <mxPoint x="1000" y="313" />
              <mxPoint x="740" y="313" />
              <mxPoint x="740" y="695" />
            </Array>
          </mxGeometry>
        </mxCell>
        <mxCell id="7pt3q2MDJ_d6-O4SjyfG-21" style="rounded=0;orthogonalLoop=1;jettySize=auto;html=1;exitX=1;exitY=0;exitDx=0;exitDy=0;entryX=1;entryY=0.25;entryDx=0;entryDy=0;strokeColor=#FF6666;" parent="1" source="7pt3q2MDJ_d6-O4SjyfG-14" target="QFNl94cKe365iZrxpkh_-31" edge="1">
          <mxGeometry relative="1" as="geometry" />
        </mxCell>
        <mxCell id="7pt3q2MDJ_d6-O4SjyfG-28" style="edgeStyle=orthogonalEdgeStyle;rounded=0;orthogonalLoop=1;jettySize=auto;html=1;exitX=0.5;exitY=1;exitDx=0;exitDy=0;entryX=0.988;entryY=0.189;entryDx=0;entryDy=0;entryPerimeter=0;fillColor=#f8cecc;strokeColor=#b85450;" parent="1" source="7pt3q2MDJ_d6-O4SjyfG-14" target="QFNl94cKe365iZrxpkh_-2" edge="1">
          <mxGeometry relative="1" as="geometry">
            <Array as="points">
              <mxPoint x="1040" y="140" />
              <mxPoint x="450" y="140" />
              <mxPoint x="450" y="251" />
            </Array>
          </mxGeometry>
        </mxCell>
        <mxCell id="7pt3q2MDJ_d6-O4SjyfG-14" value="&lt;div&gt;User is not Logged In&lt;/div&gt;" style="shape=parallelogram;perimeter=parallelogramPerimeter;whiteSpace=wrap;html=1;fixedSize=1;fillColor=#FF6666;strokeColor=#6F0000;strokeWidth=4;size=15;direction=west;flipH=1;fontColor=#ffffff;" parent="1" vertex="1">
          <mxGeometry x="960" y="230" width="160" height="60" as="geometry" />
        </mxCell>
        <mxCell id="7pt3q2MDJ_d6-O4SjyfG-22" value="" style="endArrow=none;html=1;rounded=0;fillColor=#f8cecc;strokeColor=#b85450;" parent="1" edge="1">
          <mxGeometry width="50" height="50" relative="1" as="geometry">
            <mxPoint x="600" y="685" as="sourcePoint" />
            <mxPoint x="600" y="705" as="targetPoint" />
          </mxGeometry>
        </mxCell>
        <mxCell id="7pt3q2MDJ_d6-O4SjyfG-23" value="" style="endArrow=none;html=1;rounded=0;fillColor=#f8cecc;strokeColor=#b85450;" parent="1" edge="1">
          <mxGeometry width="50" height="50" relative="1" as="geometry">
            <mxPoint x="610" y="270" as="sourcePoint" />
            <mxPoint x="610" y="240" as="targetPoint" />
          </mxGeometry>
        </mxCell>
        <mxCell id="7pt3q2MDJ_d6-O4SjyfG-25" value="" style="endArrow=none;html=1;rounded=0;fillColor=#f8cecc;strokeColor=#b85450;" parent="1" edge="1">
          <mxGeometry width="50" height="50" relative="1" as="geometry">
            <mxPoint x="395" y="650" as="sourcePoint" />
            <mxPoint x="385" y="620" as="targetPoint" />
          </mxGeometry>
        </mxCell>
        <mxCell id="7pt3q2MDJ_d6-O4SjyfG-27" value="" style="endArrow=none;html=1;rounded=0;fillColor=#dae8fc;strokeColor=#6c8ebf;" parent="1" edge="1">
          <mxGeometry width="50" height="50" relative="1" as="geometry">
            <mxPoint x="1125" y="270" as="sourcePoint" />
            <mxPoint x="1125" y="250" as="targetPoint" />
          </mxGeometry>
        </mxCell>
        <mxCell id="7pt3q2MDJ_d6-O4SjyfG-29" value="" style="endArrow=none;html=1;rounded=0;" parent="1" edge="1">
          <mxGeometry width="50" height="50" relative="1" as="geometry">
            <mxPoint x="410" y="260" as="sourcePoint" />
            <mxPoint x="410" y="240" as="targetPoint" />
          </mxGeometry>
        </mxCell>
        <mxCell id="7pt3q2MDJ_d6-O4SjyfG-31" style="edgeStyle=orthogonalEdgeStyle;rounded=0;orthogonalLoop=1;jettySize=auto;html=1;fillColor=#f8cecc;strokeColor=#b85450;entryX=1;entryY=0.75;entryDx=0;entryDy=0;" parent="1" target="7pt3q2MDJ_d6-O4SjyfG-2" edge="1">
          <mxGeometry relative="1" as="geometry">
            <mxPoint x="1260" y="581" as="targetPoint" />
            <mxPoint x="1360" y="379" as="sourcePoint" />
          </mxGeometry>
        </mxCell>
        <mxCell id="7pt3q2MDJ_d6-O4SjyfG-30" value="&lt;div&gt;User is not Registered&lt;br&gt;&lt;/div&gt;" style="shape=parallelogram;perimeter=parallelogramPerimeter;whiteSpace=wrap;html=1;fixedSize=1;fillColor=#FF6666;strokeColor=#6F0000;strokeWidth=4;size=15;direction=west;flipH=1;fontColor=#ffffff;" parent="1" vertex="1">
          <mxGeometry x="1350" y="345" width="160" height="60" as="geometry" />
        </mxCell>
        <mxCell id="7pt3q2MDJ_d6-O4SjyfG-32" value="&lt;div&gt;User is Logged In&lt;br&gt;&lt;/div&gt;" style="shape=parallelogram;perimeter=parallelogramPerimeter;whiteSpace=wrap;html=1;fixedSize=1;fillColor=#ffff88;strokeColor=#36393d;strokeWidth=4;" parent="1" vertex="1">
          <mxGeometry x="1020" y="465" width="160" height="60" as="geometry" />
        </mxCell>
        <mxCell id="7pt3q2MDJ_d6-O4SjyfG-35" style="rounded=0;orthogonalLoop=1;jettySize=auto;html=1;exitX=1;exitY=0;exitDx=0;exitDy=0;entryX=0.5;entryY=1;entryDx=0;entryDy=0;" parent="1" source="7pt3q2MDJ_d6-O4SjyfG-33" target="7pt3q2MDJ_d6-O4SjyfG-32" edge="1">
          <mxGeometry relative="1" as="geometry" />
        </mxCell>
        <mxCell id="7pt3q2MDJ_d6-O4SjyfG-33" value="" style="ellipse;whiteSpace=wrap;html=1;aspect=fixed;fillColor=#e51400;strokeColor=#B20000;fontColor=#ffffff;" parent="1" vertex="1">
          <mxGeometry x="1040" y="630" width="20" height="20" as="geometry" />
        </mxCell>
        <mxCell id="7pt3q2MDJ_d6-O4SjyfG-37" value="" style="endArrow=none;html=1;rounded=0;" parent="1" edge="1">
          <mxGeometry width="50" height="50" relative="1" as="geometry">
            <mxPoint x="1274" y="390" as="sourcePoint" />
            <mxPoint x="1274" y="370" as="targetPoint" />
          </mxGeometry>
        </mxCell>
        <mxCell id="7pt3q2MDJ_d6-O4SjyfG-44" style="edgeStyle=orthogonalEdgeStyle;rounded=0;orthogonalLoop=1;jettySize=auto;html=1;exitX=0;exitY=0.5;exitDx=0;exitDy=0;entryX=0;entryY=0.5;entryDx=0;entryDy=0;fillColor=#dae8fc;strokeColor=#6c8ebf;" parent="1" source="7pt3q2MDJ_d6-O4SjyfG-43" target="7pt3q2MDJ_d6-O4SjyfG-30" edge="1">
          <mxGeometry relative="1" as="geometry" />
        </mxCell>
        <mxCell id="SKgAH3P458jAHIBZNOmR-23" style="rounded=0;orthogonalLoop=1;jettySize=auto;html=1;exitX=0.25;exitY=0;exitDx=0;exitDy=0;endArrow=none;endFill=0;" parent="1" source="7pt3q2MDJ_d6-O4SjyfG-43" target="SKgAH3P458jAHIBZNOmR-18" edge="1">
          <mxGeometry relative="1" as="geometry">
            <mxPoint x="1670" y="470" as="targetPoint" />
          </mxGeometry>
        </mxCell>
        <mxCell id="7pt3q2MDJ_d6-O4SjyfG-43" value="Register User" style="shape=parallelogram;html=1;strokeWidth=2;perimeter=parallelogramPerimeter;whiteSpace=wrap;rounded=0;arcSize=12;size=0.23;fillColor=#dae8fc;strokeColor=#6c8ebf;" parent="1" vertex="1">
          <mxGeometry x="1610" y="350" width="140" height="50" as="geometry" />
        </mxCell>
        <mxCell id="7pt3q2MDJ_d6-O4SjyfG-45" value="" style="endArrow=none;html=1;rounded=0;" parent="1" edge="1">
          <mxGeometry width="50" height="50" relative="1" as="geometry">
            <mxPoint x="1520" y="385" as="sourcePoint" />
            <mxPoint x="1520" y="365" as="targetPoint" />
          </mxGeometry>
        </mxCell>
        <mxCell id="N_5KMHFPPtvNETul84LO-2" style="rounded=0;orthogonalLoop=1;jettySize=auto;html=1;exitX=0;exitY=0;exitDx=0;exitDy=0;entryX=0.867;entryY=1.017;entryDx=0;entryDy=0;entryPerimeter=0;" parent="1" source="7pt3q2MDJ_d6-O4SjyfG-50" target="N_5KMHFPPtvNETul84LO-1" edge="1">
          <mxGeometry relative="1" as="geometry">
            <mxPoint x="830" y="240" as="targetPoint" />
          </mxGeometry>
        </mxCell>
        <mxCell id="7pt3q2MDJ_d6-O4SjyfG-50" value="" style="ellipse;whiteSpace=wrap;html=1;aspect=fixed;fillColor=#ffff88;strokeColor=#36393d;" parent="1" vertex="1">
          <mxGeometry x="850" y="280" width="20" height="20" as="geometry" />
        </mxCell>
        <mxCell id="7pt3q2MDJ_d6-O4SjyfG-52" value="" style="ellipse;whiteSpace=wrap;html=1;aspect=fixed;fillColor=#cce5ff;strokeColor=#36393d;" parent="1" vertex="1">
          <mxGeometry x="895" y="555" width="20" height="20" as="geometry" />
        </mxCell>
        <mxCell id="7pt3q2MDJ_d6-O4SjyfG-53" style="rounded=0;orthogonalLoop=1;jettySize=auto;html=1;entryX=0.625;entryY=1;entryDx=0;entryDy=0;entryPerimeter=0;" parent="1" source="7pt3q2MDJ_d6-O4SjyfG-56" target="7pt3q2MDJ_d6-O4SjyfG-32" edge="1">
          <mxGeometry relative="1" as="geometry">
            <mxPoint x="1390" y="740" as="targetPoint" />
            <mxPoint x="1390" y="820" as="sourcePoint" />
          </mxGeometry>
        </mxCell>
        <mxCell id="7pt3q2MDJ_d6-O4SjyfG-59" style="rounded=0;orthogonalLoop=1;jettySize=auto;html=1;exitX=0.5;exitY=0;exitDx=0;exitDy=0;entryX=0.5;entryY=1;entryDx=0;entryDy=0;endArrow=none;endFill=0;" parent="1" source="7pt3q2MDJ_d6-O4SjyfG-54" target="7pt3q2MDJ_d6-O4SjyfG-56" edge="1">
          <mxGeometry relative="1" as="geometry" />
        </mxCell>
        <mxCell id="7pt3q2MDJ_d6-O4SjyfG-54" value="&lt;div&gt;Fills Login Form&lt;/div&gt;" style="ellipse;whiteSpace=wrap;html=1;fillColor=#f8cecc;strokeColor=#b85450;" parent="1" vertex="1">
          <mxGeometry x="1060" y="710" width="120" height="30" as="geometry" />
        </mxCell>
        <mxCell id="7pt3q2MDJ_d6-O4SjyfG-55" value="" style="endArrow=classic;html=1;rounded=0;exitX=1;exitY=0.75;exitDx=0;exitDy=0;endFill=1;entryX=0;entryY=0.5;entryDx=0;entryDy=0;" parent="1" source="QFNl94cKe365iZrxpkh_-8" target="7pt3q2MDJ_d6-O4SjyfG-54" edge="1">
          <mxGeometry width="50" height="50" relative="1" as="geometry">
            <mxPoint x="1125" y="853" as="sourcePoint" />
            <mxPoint x="1100" y="905" as="targetPoint" />
          </mxGeometry>
        </mxCell>
        <mxCell id="7pt3q2MDJ_d6-O4SjyfG-56" value="" style="ellipse;whiteSpace=wrap;html=1;aspect=fixed;fillColor=#cce5ff;strokeColor=#36393d;" parent="1" vertex="1">
          <mxGeometry x="1120" y="615" width="20" height="20" as="geometry" />
        </mxCell>
        <mxCell id="N_5KMHFPPtvNETul84LO-1" value="&lt;div&gt;List Classes&lt;/div&gt;" style="shape=parallelogram;perimeter=parallelogramPerimeter;whiteSpace=wrap;html=1;fixedSize=1;fillColor=#dae8fc;strokeColor=#6c8ebf;" parent="1" vertex="1">
          <mxGeometry x="680" y="170" width="135" height="60" as="geometry" />
        </mxCell>
        <mxCell id="N_5KMHFPPtvNETul84LO-6" value="&lt;div&gt;Manage Classes&lt;br&gt;&lt;/div&gt;" style="shape=parallelogram;perimeter=parallelogramPerimeter;whiteSpace=wrap;html=1;fixedSize=1;fillColor=#dae8fc;strokeColor=#6c8ebf;" parent="1" vertex="1">
          <mxGeometry x="92.5" y="190" width="135" height="60" as="geometry" />
        </mxCell>
        <mxCell id="N_5KMHFPPtvNETul84LO-7" value="" style="ellipse;whiteSpace=wrap;html=1;aspect=fixed;fillColor=#ffff88;strokeColor=#36393d;" parent="1" vertex="1">
          <mxGeometry x="150" y="420" width="20" height="20" as="geometry" />
        </mxCell>
        <mxCell id="N_5KMHFPPtvNETul84LO-17" style="edgeStyle=orthogonalEdgeStyle;rounded=0;orthogonalLoop=1;jettySize=auto;html=1;exitX=0.5;exitY=1;exitDx=0;exitDy=0;fillColor=#f8cecc;strokeColor=#b85450;entryX=1;entryY=0.75;entryDx=0;entryDy=0;" parent="1" source="N_5KMHFPPtvNETul84LO-16" target="QFNl94cKe365iZrxpkh_-3" edge="1">
          <mxGeometry relative="1" as="geometry">
            <Array as="points">
              <mxPoint x="663" y="282" />
            </Array>
            <mxPoint x="620" y="350" as="targetPoint" />
          </mxGeometry>
        </mxCell>
        <mxCell id="N_5KMHFPPtvNETul84LO-16" value="No competitions" style="shape=parallelogram;perimeter=parallelogramPerimeter;whiteSpace=wrap;html=1;fixedSize=1;fillColor=#FF6666;strokeColor=#6F0000;strokeWidth=4;size=15;direction=west;flipH=1;fontColor=#ffffff;" parent="1" vertex="1">
          <mxGeometry x="605" y="545" width="115" height="40" as="geometry" />
        </mxCell>
        <mxCell id="N_5KMHFPPtvNETul84LO-19" value="" style="endArrow=none;html=1;rounded=0;fillColor=#dae8fc;strokeColor=#6c8ebf;" parent="1" edge="1">
          <mxGeometry width="50" height="50" relative="1" as="geometry">
            <mxPoint x="680" y="605" as="sourcePoint" />
            <mxPoint x="660" y="605" as="targetPoint" />
          </mxGeometry>
        </mxCell>
        <mxCell id="N_5KMHFPPtvNETul84LO-21" value="" style="endArrow=none;html=1;rounded=0;fillColor=#f8cecc;strokeColor=#b85450;" parent="1" edge="1">
          <mxGeometry width="50" height="50" relative="1" as="geometry">
            <mxPoint x="595" y="290" as="sourcePoint" />
            <mxPoint x="595" y="272" as="targetPoint" />
          </mxGeometry>
        </mxCell>
        <mxCell id="SKgAH3P458jAHIBZNOmR-6" style="rounded=0;orthogonalLoop=1;jettySize=auto;html=1;exitX=0.431;exitY=1.033;exitDx=0;exitDy=0;entryX=1;entryY=0;entryDx=0;entryDy=0;endArrow=none;endFill=0;exitPerimeter=0;" parent="1" source="QFNl94cKe365iZrxpkh_-3" target="SKgAH3P458jAHIBZNOmR-11" edge="1">
          <mxGeometry relative="1" as="geometry">
            <mxPoint x="214.5" y="575" as="sourcePoint" />
            <Array as="points">
              <mxPoint x="370" y="490" />
            </Array>
          </mxGeometry>
        </mxCell>
        <mxCell id="SKgAH3P458jAHIBZNOmR-7" style="rounded=0;orthogonalLoop=1;jettySize=auto;html=1;exitX=0;exitY=0.75;exitDx=0;exitDy=0;entryX=1;entryY=0;entryDx=0;entryDy=0;endArrow=none;endFill=0;" parent="1" source="QFNl94cKe365iZrxpkh_-34" target="SKgAH3P458jAHIBZNOmR-11" edge="1">
          <mxGeometry relative="1" as="geometry">
            <mxPoint x="185.5" y="699" as="sourcePoint" />
          </mxGeometry>
        </mxCell>
        <mxCell id="SKgAH3P458jAHIBZNOmR-8" style="rounded=0;orthogonalLoop=1;jettySize=auto;html=1;exitX=0;exitY=0.75;exitDx=0;exitDy=0;entryX=1;entryY=0.5;entryDx=0;entryDy=0;endArrow=none;endFill=0;" parent="1" source="QFNl94cKe365iZrxpkh_-35" target="SKgAH3P458jAHIBZNOmR-11" edge="1">
          <mxGeometry relative="1" as="geometry">
            <mxPoint x="190.5" y="835" as="sourcePoint" />
          </mxGeometry>
        </mxCell>
        <mxCell id="SKgAH3P458jAHIBZNOmR-9" value="&lt;div&gt;Manage Competitions&lt;br&gt;&lt;/div&gt;" style="shape=parallelogram;perimeter=parallelogramPerimeter;whiteSpace=wrap;html=1;fixedSize=1;fillColor=#dae8fc;strokeColor=#6c8ebf;" parent="1" vertex="1">
          <mxGeometry x="-79.5" y="525" width="135" height="60" as="geometry" />
        </mxCell>
        <mxCell id="SKgAH3P458jAHIBZNOmR-10" style="edgeStyle=orthogonalEdgeStyle;rounded=0;orthogonalLoop=1;jettySize=auto;html=1;" parent="1" target="SKgAH3P458jAHIBZNOmR-9" edge="1">
          <mxGeometry relative="1" as="geometry">
            <mxPoint x="60" y="705" as="sourcePoint" />
          </mxGeometry>
        </mxCell>
        <mxCell id="SKgAH3P458jAHIBZNOmR-11" value="" style="ellipse;whiteSpace=wrap;html=1;aspect=fixed;fillColor=#ffff88;strokeColor=#36393d;" parent="1" vertex="1">
          <mxGeometry x="60.5" y="695" width="20" height="20" as="geometry" />
        </mxCell>
        <mxCell id="SKgAH3P458jAHIBZNOmR-12" style="edgeStyle=orthogonalEdgeStyle;rounded=0;orthogonalLoop=1;jettySize=auto;html=1;exitX=0;exitY=0.25;exitDx=0;exitDy=0;entryX=0.576;entryY=-0.076;entryDx=0;entryDy=0;entryPerimeter=0;fillColor=#dae8fc;strokeColor=#6c8ebf;" parent="1" source="QFNl94cKe365iZrxpkh_-31" target="SKgAH3P458jAHIBZNOmR-14" edge="1">
          <mxGeometry relative="1" as="geometry">
            <mxPoint x="7" y="693" as="sourcePoint" />
            <Array as="points">
              <mxPoint x="127" y="649" />
            </Array>
          </mxGeometry>
        </mxCell>
        <mxCell id="SKgAH3P458jAHIBZNOmR-13" style="rounded=0;orthogonalLoop=1;jettySize=auto;html=1;exitX=0.5;exitY=1;exitDx=0;exitDy=0;entryX=0.148;entryY=1;entryDx=0;entryDy=0;fillColor=#f8cecc;strokeColor=#b85450;entryPerimeter=0;" parent="1" source="SKgAH3P458jAHIBZNOmR-14" target="QFNl94cKe365iZrxpkh_-2" edge="1">
          <mxGeometry relative="1" as="geometry">
            <mxPoint x="-3" y="417" as="targetPoint" />
          </mxGeometry>
        </mxCell>
        <mxCell id="SKgAH3P458jAHIBZNOmR-14" value="No classes" style="shape=parallelogram;perimeter=parallelogramPerimeter;whiteSpace=wrap;html=1;fixedSize=1;fillColor=#FF6666;strokeColor=#6F0000;strokeWidth=4;size=15;direction=west;flipH=1;fontColor=#ffffff;" parent="1" vertex="1">
          <mxGeometry x="60.5" y="535" width="115" height="40" as="geometry" />
        </mxCell>
        <mxCell id="SKgAH3P458jAHIBZNOmR-15" value="" style="endArrow=none;html=1;rounded=0;fillColor=#dae8fc;strokeColor=#6c8ebf;" parent="1" edge="1">
          <mxGeometry width="50" height="50" relative="1" as="geometry">
            <mxPoint x="140" y="590" as="sourcePoint" />
            <mxPoint x="120" y="590" as="targetPoint" />
          </mxGeometry>
        </mxCell>
        <mxCell id="SKgAH3P458jAHIBZNOmR-16" value="" style="endArrow=none;html=1;rounded=0;fillColor=#f8cecc;strokeColor=#b85450;" parent="1" edge="1">
          <mxGeometry width="50" height="50" relative="1" as="geometry">
            <mxPoint x="250" y="310" as="sourcePoint" />
            <mxPoint x="280" y="330" as="targetPoint" />
          </mxGeometry>
        </mxCell>
        <mxCell id="SKgAH3P458jAHIBZNOmR-17" value="Manage Users" style="shape=parallelogram;html=1;strokeWidth=2;perimeter=parallelogramPerimeter;whiteSpace=wrap;rounded=0;arcSize=12;size=0.23;fillColor=#dae8fc;strokeColor=#000000;" parent="1" vertex="1">
          <mxGeometry x="1320" y="170" width="140" height="50" as="geometry" />
        </mxCell>
        <mxCell id="SKgAH3P458jAHIBZNOmR-20" style="rounded=0;orthogonalLoop=1;jettySize=auto;html=1;exitX=0.5;exitY=0;exitDx=0;exitDy=0;" parent="1" source="SKgAH3P458jAHIBZNOmR-18" target="SKgAH3P458jAHIBZNOmR-17" edge="1">
          <mxGeometry relative="1" as="geometry" />
        </mxCell>
        <mxCell id="SKgAH3P458jAHIBZNOmR-18" value="" style="ellipse;whiteSpace=wrap;html=1;aspect=fixed;fillColor=#ffff88;strokeColor=#36393d;" parent="1" vertex="1">
          <mxGeometry x="1420" y="270" width="20" height="20" as="geometry" />
        </mxCell>
        <mxCell id="qC7BGljKuCgGWPA5xysE-5" value="" style="endArrow=none;html=1;rounded=0;entryX=0.5;entryY=0;entryDx=0;entryDy=0;exitX=0.5;exitY=1;exitDx=0;exitDy=0;" parent="1" source="7pt3q2MDJ_d6-O4SjyfG-50" target="QFNl94cKe365iZrxpkh_-40" edge="1">
          <mxGeometry width="50" height="50" relative="1" as="geometry">
            <mxPoint x="820" y="400" as="sourcePoint" />
            <mxPoint x="800" y="430" as="targetPoint" />
          </mxGeometry>
        </mxCell>
        <mxCell id="qC7BGljKuCgGWPA5xysE-10" value="" style="endArrow=none;html=1;rounded=0;exitX=1;exitY=0.25;exitDx=0;exitDy=0;" parent="1" source="QFNl94cKe365iZrxpkh_-8" target="7pt3q2MDJ_d6-O4SjyfG-10" edge="1">
          <mxGeometry width="50" height="50" relative="1" as="geometry">
            <mxPoint x="870" y="670" as="sourcePoint" />
            <mxPoint x="920" y="660" as="targetPoint" />
          </mxGeometry>
        </mxCell>
        <mxCell id="qC7BGljKuCgGWPA5xysE-11" value="" style="endArrow=none;html=1;rounded=0;entryX=1;entryY=1;entryDx=0;entryDy=0;exitX=0.55;exitY=0.025;exitDx=0;exitDy=0;exitPerimeter=0;" parent="1" source="7pt3q2MDJ_d6-O4SjyfG-10" target="7pt3q2MDJ_d6-O4SjyfG-52" edge="1">
          <mxGeometry width="50" height="50" relative="1" as="geometry">
            <mxPoint x="980" y="660" as="sourcePoint" />
            <mxPoint x="1030" y="610" as="targetPoint" />
          </mxGeometry>
        </mxCell>
        <mxCell id="qC7BGljKuCgGWPA5xysE-14" value="" style="endArrow=none;html=1;rounded=0;entryX=0;entryY=0;entryDx=0;entryDy=0;exitX=1;exitY=0.5;exitDx=0;exitDy=0;" parent="1" source="7pt3q2MDJ_d6-O4SjyfG-50" target="7pt3q2MDJ_d6-O4SjyfG-32" edge="1">
          <mxGeometry width="50" height="50" relative="1" as="geometry">
            <mxPoint x="970" y="460" as="sourcePoint" />
            <mxPoint x="1020" y="410" as="targetPoint" />
          </mxGeometry>
        </mxCell>
        <mxCell id="qC7BGljKuCgGWPA5xysE-16" value="" style="endArrow=none;html=1;rounded=0;exitX=1;exitY=0.5;exitDx=0;exitDy=0;" parent="1" source="QFNl94cKe365iZrxpkh_-39" target="7pt3q2MDJ_d6-O4SjyfG-32" edge="1">
          <mxGeometry width="50" height="50" relative="1" as="geometry">
            <mxPoint x="690" y="410" as="sourcePoint" />
            <mxPoint x="740" y="360" as="targetPoint" />
            <Array as="points">
              <mxPoint x="800" y="370" />
            </Array>
          </mxGeometry>
        </mxCell>
        <mxCell id="qC7BGljKuCgGWPA5xysE-17" value="" style="endArrow=none;html=1;rounded=0;entryX=0.5;entryY=0;entryDx=0;entryDy=0;exitX=1;exitY=0.5;exitDx=0;exitDy=0;" parent="1" source="QFNl94cKe365iZrxpkh_-39" target="QFNl94cKe365iZrxpkh_-40" edge="1">
          <mxGeometry width="50" height="50" relative="1" as="geometry">
            <mxPoint x="630" y="460" as="sourcePoint" />
            <mxPoint x="680" y="410" as="targetPoint" />
            <Array as="points">
              <mxPoint x="780" y="390" />
            </Array>
          </mxGeometry>
        </mxCell>
        <mxCell id="qC7BGljKuCgGWPA5xysE-18" value="" style="endArrow=none;html=1;rounded=0;entryX=0;entryY=0.25;entryDx=0;entryDy=0;exitX=1;exitY=0.5;exitDx=0;exitDy=0;" parent="1" source="QFNl94cKe365iZrxpkh_-30" target="7pt3q2MDJ_d6-O4SjyfG-32" edge="1">
          <mxGeometry width="50" height="50" relative="1" as="geometry">
            <mxPoint x="780" y="450" as="sourcePoint" />
            <mxPoint x="830" y="400" as="targetPoint" />
            <Array as="points">
              <mxPoint x="670" y="400" />
            </Array>
          </mxGeometry>
        </mxCell>
        <mxCell id="qC7BGljKuCgGWPA5xysE-19" value="" style="endArrow=none;html=1;rounded=0;entryX=0.119;entryY=0;entryDx=0;entryDy=0;entryPerimeter=0;exitX=1;exitY=0.5;exitDx=0;exitDy=0;" parent="1" source="QFNl94cKe365iZrxpkh_-30" target="QFNl94cKe365iZrxpkh_-40" edge="1">
          <mxGeometry width="50" height="50" relative="1" as="geometry">
            <mxPoint x="620" y="460" as="sourcePoint" />
            <mxPoint x="670" y="410" as="targetPoint" />
            <Array as="points" />
          </mxGeometry>
        </mxCell>
        <mxCell id="qC7BGljKuCgGWPA5xysE-22" value="" style="endArrow=classic;html=1;rounded=0;entryX=0;entryY=1;entryDx=0;entryDy=0;exitX=1;exitY=0;exitDx=0;exitDy=0;" parent="1" source="QFNl94cKe365iZrxpkh_-40" target="7pt3q2MDJ_d6-O4SjyfG-2" edge="1">
          <mxGeometry width="50" height="50" relative="1" as="geometry">
            <mxPoint x="1020" y="450" as="sourcePoint" />
            <mxPoint x="1070" y="400" as="targetPoint" />
          </mxGeometry>
        </mxCell>
        <mxCell id="qC7BGljKuCgGWPA5xysE-23" value="&lt;div&gt;System is Running&lt;/div&gt;" style="shape=parallelogram;perimeter=parallelogramPerimeter;whiteSpace=wrap;html=1;fixedSize=1;fillColor=#dae8fc;strokeColor=#000000;strokeWidth=4;" parent="1" vertex="1">
          <mxGeometry x="915" y="980" width="160" height="60" as="geometry" />
        </mxCell>
        <mxCell id="qC7BGljKuCgGWPA5xysE-24" value="" style="ellipse;whiteSpace=wrap;html=1;aspect=fixed;fillColor=#e51400;strokeColor=#B20000;fontColor=#ffffff;" parent="1" vertex="1">
          <mxGeometry x="980" y="1120" width="20" height="20" as="geometry" />
        </mxCell>
        <mxCell id="qC7BGljKuCgGWPA5xysE-25" value="" style="endArrow=none;html=1;rounded=0;entryX=0.5;entryY=1;entryDx=0;entryDy=0;exitX=0.5;exitY=0;exitDx=0;exitDy=0;" parent="1" source="QFNl94cKe365iZrxpkh_-9" target="qC7BGljKuCgGWPA5xysE-24" edge="1">
          <mxGeometry width="50" height="50" relative="1" as="geometry">
            <mxPoint x="900" y="1210" as="sourcePoint" />
            <mxPoint x="950" y="1160" as="targetPoint" />
          </mxGeometry>
        </mxCell>
        <mxCell id="qC7BGljKuCgGWPA5xysE-26" value="" style="endArrow=classic;html=1;rounded=0;exitX=0.5;exitY=0;exitDx=0;exitDy=0;entryX=0.463;entryY=1.017;entryDx=0;entryDy=0;entryPerimeter=0;" parent="1" source="qC7BGljKuCgGWPA5xysE-24" target="qC7BGljKuCgGWPA5xysE-23" edge="1">
          <mxGeometry width="50" height="50" relative="1" as="geometry">
            <mxPoint x="970" y="1090" as="sourcePoint" />
            <mxPoint x="1020" y="1020" as="targetPoint" />
          </mxGeometry>
        </mxCell>
        <mxCell id="qC7BGljKuCgGWPA5xysE-29" value="" style="endArrow=none;html=1;rounded=0;exitX=1;exitY=1;exitDx=0;exitDy=0;" parent="1" source="QFNl94cKe365iZrxpkh_-51" target="qC7BGljKuCgGWPA5xysE-23" edge="1">
          <mxGeometry width="50" height="50" relative="1" as="geometry">
            <mxPoint x="770" y="990" as="sourcePoint" />
            <mxPoint x="820" y="940" as="targetPoint" />
          </mxGeometry>
        </mxCell>
        <mxCell id="qC7BGljKuCgGWPA5xysE-30" value="" style="endArrow=none;html=1;rounded=0;entryX=0;entryY=0.75;entryDx=0;entryDy=0;exitX=1;exitY=1;exitDx=0;exitDy=0;" parent="1" source="QFNl94cKe365iZrxpkh_-53" target="qC7BGljKuCgGWPA5xysE-23" edge="1">
          <mxGeometry width="50" height="50" relative="1" as="geometry">
            <mxPoint x="790" y="1030" as="sourcePoint" />
            <mxPoint x="840" y="980" as="targetPoint" />
          </mxGeometry>
        </mxCell>
        <mxCell id="qC7BGljKuCgGWPA5xysE-31" value="" style="endArrow=none;html=1;rounded=0;entryX=0;entryY=1;entryDx=0;entryDy=0;exitX=1;exitY=0;exitDx=0;exitDy=0;" parent="1" source="qC7BGljKuCgGWPA5xysE-23" target="qC7BGljKuCgGWPA5xysE-32" edge="1">
          <mxGeometry width="50" height="50" relative="1" as="geometry">
            <mxPoint x="1090" y="910" as="sourcePoint" />
            <mxPoint x="1140" y="860" as="targetPoint" />
          </mxGeometry>
        </mxCell>
        <mxCell id="qC7BGljKuCgGWPA5xysE-32" value="" style="ellipse;whiteSpace=wrap;html=1;aspect=fixed;fillColor=#ffff88;strokeColor=#36393d;" parent="1" vertex="1">
          <mxGeometry x="1400" y="665" width="20" height="20" as="geometry" />
        </mxCell>
        <mxCell id="qC7BGljKuCgGWPA5xysE-33" value="" style="endArrow=classic;html=1;rounded=0;exitX=1;exitY=0;exitDx=0;exitDy=0;entryX=0.407;entryY=1.02;entryDx=0;entryDy=0;entryPerimeter=0;" parent="1" source="qC7BGljKuCgGWPA5xysE-32" target="7pt3q2MDJ_d6-O4SjyfG-43" edge="1">
          <mxGeometry width="50" height="50" relative="1" as="geometry">
            <mxPoint x="1520" y="670" as="sourcePoint" />
            <mxPoint x="1570" y="620" as="targetPoint" />
          </mxGeometry>
        </mxCell>
        <mxCell id="qC7BGljKuCgGWPA5xysE-36" value="" style="endArrow=none;html=1;rounded=0;entryX=0;entryY=0.5;entryDx=0;entryDy=0;exitX=1;exitY=0.5;exitDx=0;exitDy=0;" parent="1" source="N_5KMHFPPtvNETul84LO-7" target="QFNl94cKe365iZrxpkh_-28" edge="1">
          <mxGeometry width="50" height="50" relative="1" as="geometry">
            <mxPoint x="210" y="460" as="sourcePoint" />
            <mxPoint x="260" y="410" as="targetPoint" />
          </mxGeometry>
        </mxCell>
        <mxCell id="qC7BGljKuCgGWPA5xysE-37" value="" style="endArrow=classic;html=1;rounded=0;entryX=0.5;entryY=1;entryDx=0;entryDy=0;exitX=0.5;exitY=0;exitDx=0;exitDy=0;" parent="1" source="N_5KMHFPPtvNETul84LO-7" target="N_5KMHFPPtvNETul84LO-6" edge="1">
          <mxGeometry width="50" height="50" relative="1" as="geometry">
            <mxPoint x="90" y="350" as="sourcePoint" />
            <mxPoint x="140" y="300" as="targetPoint" />
          </mxGeometry>
        </mxCell>
        <mxCell id="qC7BGljKuCgGWPA5xysE-38" value="" style="ellipse;whiteSpace=wrap;html=1;aspect=fixed;fillColor=#ffff88;strokeColor=#36393d;" parent="1" vertex="1">
          <mxGeometry x="550" y="360" width="20" height="20" as="geometry" />
        </mxCell>
        <mxCell id="qC7BGljKuCgGWPA5xysE-39" value="" style="endArrow=none;html=1;rounded=0;exitX=1;exitY=0.5;exitDx=0;exitDy=0;entryX=0;entryY=0.5;entryDx=0;entryDy=0;" parent="1" source="QFNl94cKe365iZrxpkh_-28" target="qC7BGljKuCgGWPA5xysE-38" edge="1">
          <mxGeometry width="50" height="50" relative="1" as="geometry">
            <mxPoint x="420" y="480" as="sourcePoint" />
            <mxPoint x="510" y="370" as="targetPoint" />
          </mxGeometry>
        </mxCell>
        <mxCell id="qC7BGljKuCgGWPA5xysE-40" value="" style="endArrow=classic;html=1;rounded=0;entryX=0.25;entryY=1;entryDx=0;entryDy=0;exitX=1;exitY=0;exitDx=0;exitDy=0;" parent="1" source="qC7BGljKuCgGWPA5xysE-38" target="N_5KMHFPPtvNETul84LO-1" edge="1">
          <mxGeometry width="50" height="50" relative="1" as="geometry">
            <mxPoint x="610" y="340" as="sourcePoint" />
            <mxPoint x="660" y="290" as="targetPoint" />
          </mxGeometry>
        </mxCell>
        <mxCell id="r8r4mMptgFlD3wxISoNY-2" value="" style="ellipse;whiteSpace=wrap;html=1;aspect=fixed;fillColor=#ffff88;strokeColor=#36393d;" parent="1" vertex="1">
          <mxGeometry x="1255" y="635" width="20" height="20" as="geometry" />
        </mxCell>
        <mxCell id="r8r4mMptgFlD3wxISoNY-3" value="" style="endArrow=none;html=1;rounded=0;exitX=1;exitY=0;exitDx=0;exitDy=0;entryX=0;entryY=1;entryDx=0;entryDy=0;" parent="1" source="qC7BGljKuCgGWPA5xysE-23" target="r8r4mMptgFlD3wxISoNY-2" edge="1">
          <mxGeometry width="50" height="50" relative="1" as="geometry">
            <mxPoint x="1090" y="890" as="sourcePoint" />
            <mxPoint x="1140" y="840" as="targetPoint" />
          </mxGeometry>
        </mxCell>
        <mxCell id="r8r4mMptgFlD3wxISoNY-4" value="" style="endArrow=classic;html=1;rounded=0;entryX=0.5;entryY=1;entryDx=0;entryDy=0;exitX=0.5;exitY=0;exitDx=0;exitDy=0;" parent="1" source="r8r4mMptgFlD3wxISoNY-2" target="7pt3q2MDJ_d6-O4SjyfG-2" edge="1">
          <mxGeometry width="50" height="50" relative="1" as="geometry">
            <mxPoint x="1230" y="580" as="sourcePoint" />
            <mxPoint x="1260" y="430" as="targetPoint" />
          </mxGeometry>
        </mxCell>
      </root>
    </mxGraphModel>
  </diagram>
</mxfile>
